<?xml version="1.0" standalone="yes"?>
<svg xmlns="http://www.w3.org/2000/svg" width="512" height="512">
<path style="fill:#02a9f3; stroke:none;" d="M0 0L0 366L0 512L512 512L512 0L146 0L0 0z"/>
<path style="fill:#fcfeff; stroke:none;" d="M160 221L161 222L161 244L161 247L161 249L160.972 251L160.889 252L160.667 253L160.278 253.972L158.889 255.75L157.972 256.528L156 257.833L155 258.444L154.028 259.167L153.083 259.861L151.389 261.389L150.639 262.222L149.861 263.083L148.444 265L147.25 267L146.778 268L146.25 269L145.472 271L145.25 272L145.083 273L145 275L145 276L145 277L145 279L145 281L145.083 283L145.25 284L145.472 285L145.861 286L146.778 288L147.25 289L148.389 291L149.028 292L150.417 293.917L152.083 295.583L154 296.972L156 298.167L157 298.722L159 299.611L161 300.306L162 300.583L163 300.778L164 300.917L166 301L168 301L170 301L172 300.917L173 300.778L174 300.583L175 300.306L177 299.611L179 298.722L180 298.167L182 296.972L183.917 295.583L185.583 293.917L186.306 292.972L187.611 291L188.167 290L189.222 288L189.75 287L190.528 285L190.917 283L191 281L191 280L191 278L191 276L191 275L190.917 273L190.528 271L190.139 270L189.222 268L188.75 267L187.528 265L186.75 264L185.917 263L184 261.028L182 259.25L181 258.472L179 257.167L178.028 256.528L176.333 254.917L175.722 253.972L175.333 253L175.111 252L175.028 251L175 249L175 247L175 244L175 222L176 221L218 221L219 222L219 253L219 259L219 261L219 262L219 264L218.917 266L218.75 267L218.528 268L218.139 269L217.722 270L216.611 272L215.972 273L214.667 275L213.333 277L212.667 278L211.389 280L210.806 281L209.611 283L208.389 285L207.167 287L206.556 288L205.833 289L204.444 291L203.833 292L202.611 294L201.417 296L200.417 298L200.028 299L199.417 301L199.083 303L199.028 304L199 305L199 307L199 308L199 311L199 332L197.5 332.111L195.944 332.639L195 333.111L193 334.389L192.028 335.139L190.222 336.639L189.389 337.389L187.861 339.083L187.167 340.028L186.444 341L185.278 343L184.389 345L183.694 347L183.417 348L183.083 350L183 352L183 354L183 356L183.083 358L183.25 359L183.472 360L184.25 362L184.778 363L185.778 365L186.861 367L187.472 368L189.083 369.972L190.028 370.917L192 372.583L194 373.917L196 374.917L198 375.611L199 375.861L201 376.361L202 376.611L204 376.917L206 377L207 376.972L208 376.917L210 376.611L211 376.361L213 375.861L214 375.611L216 374.972L217 374.583L219 373.5L220 372.75L222 370.972L223.917 369L225.528 367L226.139 366L227.222 364L228.139 362L228.528 361L228.917 359L229 357L229 356L229 355L229 353L229 351L229 350L228.917 348L228.528 346L228.139 345L227.222 343L226.139 341L225.528 340L224.75 339L222.972 337.083L221 335.417L220 334.694L218 333.389L216.056 332.278L215.056 331.833L214.5 331.5L213 331L213 314L213 311L213 310L213 309L213.083 307L213.25 306L213.472 305L213.861 304L214.833 302L215.389 301L216.667 299L217.333 298L218.611 296L219.194 295L220.389 293L221.611 291L222.194 290L223.389 288L224.611 286L225.806 284L226.389 283L227.028 282L227.667 281L229 279L229.667 278L230.889 276L231.361 275L231.694 274L231.972 272L232 271L232 270L232 268L232 259L232 239L232 231L232 229L232.028 227L232.083 226L232.389 224.056L232.75 222.5L233 221L274 221L275 222L275 229L275 231L274.972 232L274.917 233L274.611 235L274.222 237L274.083 238L274 240L274 241L274 244L274 252L274 276L272.5 276.5L270.944 277.278L269 278.444L268 279.167L267.028 279.861L265.222 281.389L264.389 282.222L262.861 284.028L262.167 285L261.472 286L260.917 287L260.417 288L259.611 290L258.833 292L258.472 293L258.083 295L258 297L258 298L258 299L258.083 301L258.417 303L258.694 304L259.389 306L259.833 307L260.25 308L261.25 310L261.861 311L262.472 312L263.25 313L264.083 314L266 315.917L268 317.528L269 318.139L270 318.722L272 319.611L273 319.972L275 320.583L276 320.806L278 321.194L280 321.583L281 321.694L282 321.694L284 321.389L286 321L287 320.806L289 320.306L291 319.611L292 319.167L293 318.722L295 317.528L297 315.917L298.917 314L299.778 313L301.306 311L301.972 310L303.083 308L303.5 307L303.778 306L304 305L304.389 303L304.611 302L304.917 300L305 298L304.917 296L304.611 294L304.361 293L303.833 291L303.556 290L302.75 288L302.222 287L301.75 286L300.528 284L299.75 283.028L297.972 281.222L296 279.694L295 279.028L294 278.389L293 277.806L291.028 276.528L289.333 274.917L288.333 273L288.028 271L288 270L288 269L288 267L288 257L288 222L289 221L326 221L327 222L327 256L327 266L327 268L327.028 270L327.083 271L327.472 273L327.861 274L328.833 276L329.389 277L330.667 279L331.333 280L332.667 282L333.972 284L334.611 285L335.194 286L336.389 288L337.611 290L338.806 292L339.389 293L340.028 294L341.333 296L341.972 297L342.611 298L343.194 299L344.361 301L344.944 302L345.917 304L346.583 306L346.778 307L346.917 308L347 310L347 312L347 315L347 320L347 322L347 323L347 324L346.972 326L346.917 327L346.5 328.972L346.056 329.917L344.75 331.528L342.972 332.806L342 333.389L340 334.694L339 335.417L337.028 337.083L335.25 339L334.472 340L333.25 342L332.778 343L332.25 344L331.833 345L331.389 346L330.694 348L330.417 349L330.083 351L330 353L330 354L330.083 356L330.417 358L330.694 359L331.333 361L332.028 363L332.417 364L333.417 366L334.694 368L335.417 368.972L337.083 370.778L339 372.306L340 372.972L341 373.611L343 374.722L345 375.528L346 375.778L348 376.194L349 376.389L350 376.611L352 376.917L353 376.972L355 376.917L357 376.611L358 376.389L360 376L361 375.778L362 375.528L364 374.722L366 373.611L367 372.972L368 372.306L369.917 370.778L370.778 369.917L371.583 368.972L372.972 367L374.167 365L374.722 364L375.139 363L375.556 362L376.139 360L376.361 359L376.611 358L376.917 356L376.972 355L377 354L376.917 352L376.778 351L376.389 349L376 347L375.778 346L375.5 345L375.083 344L373.972 342L373.306 341L372.583 340L370.917 338L369.972 337.028L368 335.25L367 334.472L365 333.25L364.028 332.75L362.25 331.528L361.5 330.75L360.944 329.917L360.25 328L360.028 326L360.083 324L360.389 322L360.611 321L360.917 319L360.972 318L361 316L361 314L361 311L361 309L361 308L361 307L360.917 305L360.611 303L360.389 302L359.972 300L359.722 299L358.917 297L357.806 295L357.194 294L356.611 293L355.389 291L354.194 289L353.611 288L352.333 286L351.667 285L350.333 283L349.667 282L348.389 280L347.806 279L346.611 277L345.972 276L344.667 274L343.389 272L342.833 271L341.861 269L341.472 268L341.25 267L341.083 266L341 264L341 262L341 261L341 259L341 253L341 222L342 221L369 221L378 221L380 221L382 220.972L383 220.917L385 220.611L386 220.389L388 220L390 219.611L392 219.139L393 218.833L394 218.556L395 218.139L396 217.75L398 216.75L399 216.167L401 215L403 213.806L404 213.167L405 212.528L407 210.917L409 209L410 208L411.917 206L413.583 204L414.972 202L415.611 201L416.75 199L417.222 198L417.75 197L418.611 195L418.972 194L419.611 192L420.139 190L420.361 189L420.639 188L420.861 187L421.361 185L421.611 184L421.917 182L421.972 181L422 180L422 178L422 176L421.917 174L421.778 173L421.361 171L420.861 169L420.611 168L420.306 167L419.667 165L418.972 163L418.611 162L417.75 160L417.222 159L416.222 157L415.75 156L414.528 154L413.778 153L413 152L411.389 150L410.611 149L408.917 147.083L407 145.389L406 144.639L404 143.167L403 142.444L401 141.25L400 140.778L399 140.25L398 139.833L397 139.389L395 138.611L393 137.806L392 137.389L391 137.028L389 136.306L388 135.889L387 135.361L386.028 134.694L385.083 133.889L383.5 132L382.5 130L382.083 128L382.028 127L382 126L381.972 124L381.917 123L381.611 121L381.361 120L381.139 119L380.556 117L380.167 116L379.389 114L378.583 112L377.583 110L376.306 108L375.583 107L373.917 105L372.972 104L371 102.028L370 101.083L368 99.4722L366 98.25L365 97.7778L363 96.7778L362 96.25L360 95.4445L358 94.8611L357 94.6389L356 94.3889L354 94.0833L353 94.0278L351 94L350 94L348 94L347 94L346 94L344 93.9167L342 93.5L341 93.0555L340 92.5L338.028 90.9167L336.333 89L335.722 88L335.111 86L335.028 85L335 84L335 83L335 81L335 78L335 76L335 74L334.917 72L334.583 70L334 68L333.667 67L333 65L332.333 63L331.972 62L331.611 61L330.75 59L330.222 58L329.75 57L329.139 56L328.556 55L327.833 54L326.361 52L325.611 51L323.917 49L322 47.0278L321 46.0833L320 45.2222L318 43.6945L316 42.3333L314 41.0278L313 40.3889L312 39.8333L311 39.2778L310 38.8333L309 38.3889L308 38.0278L307 37.6667L305 37L303 36.3889L302 36.1389L301 35.8611L299 35.3889L297 35.0833L295 35L293 35L290 35L288 35L286 35.0278L285 35.0833L283 35.3889L282 35.6111L280 36L278 36.4722L277 36.8333L275 37.6111L274 37.9722L272 38.6945L271 39.0833L269 40.0833L267 41.3333L266 42L264 43.4167L262 45.0833L260 47L259 48L258 49L256 51L254 53L253 53.9722L252 54.8889L251 55.6945L250 56.3611L248 57.1945L247 57.3611L245 57.1945L243 56.3889L241 55.1111L240 54.3889L239 53.6945L237 52.3889L235 51.25L234 50.7778L233 50.2222L231 49.25L230 48.8611L229 48.4445L228 48.1667L227 47.8611L225 47.3889L224 47.1945L222 46.8055L220 46.3889L219 46.2222L218 46.0833L216 46L214 46L212 46L211 46.0278L210 46.0833L208 46.3889L207 46.6111L205 47L203 47.3889L201 47.8611L200 48.1667L199 48.4445L197 49.25L196 49.7778L195 50.25L193 51.3889L191 52.6667L190 53.3333L189 54L187 55.4167L185 57.0833L183.083 59L181.417 61L180 63L179.333 64L178.028 66L177.389 67L176.25 69L175.778 70L175.25 71L174.389 73L174 74L173.083 76L172.5 77L170.917 78.9167L169 80.5L167 81.5L165 81.9167L163 82L161 81.9167L160 81.7778L158 81.3889L156 81.1667L154 81.3889L153 81.6111L151 81.9167L150 82L149 82.0833L147 82.4167L146 82.6945L144 83.3889L143 83.8055L142 84.1945L140 85.0555L138 86.0833L137 86.6945L135 88L133 89.4167L132.028 90.2222L131.083 91.0833L129.389 93L128.639 94L127.139 96L125.722 98L125.083 99L124.056 101L123.639 102L123.194 103L122.806 104L122.028 106L121.389 108L121.139 109L120.639 111L120.389 112L120.083 114L120.028 115L120 117L120 119L120.083 121L120.389 123L120.861 125L121.139 126L121.611 128L121.833 130L121.722 131L121.083 133L119.972 134.972L119.306 135.917L117.778 137.528L115.972 138.75L115 139.222L114 139.778L113 140.222L112 140.778L111 141.25L109 142.444L108 143.167L106 144.639L105 145.389L103.028 147.083L102.083 148.028L100.389 150L99.6389 151L98.1389 153L97.3889 154L96.0278 156L95.3889 157L94.8333 158L94.2778 159L93.3889 161L93.0278 162L92.3333 164L91.6944 166L91.3889 167L91.1389 168L90.6389 170L90.3889 171L90.0833 173L90.0278 174L90 176L90 177L90 179L90 181L90.0278 182L90.0833 183L90.3889 185L90.6389 186L90.8611 187L91.1389 188L91.6389 190L91.8611 191L92.1667 192L92.4444 193L93.25 195L93.75 196L94.1667 197L94.6389 198L95.6111 200L96.8889 202L97.6389 203L99.1389 205L99.8611 205.972L101.389 207.778L103.083 209.389L104.028 210.194L105 211L107 212.583L108 213.306L110 214.611L112 215.75L113 216.222L114 216.778L115 217.222L116 217.75L118 218.556L119 218.833L120 219.139L122 219.611L124 220L126 220.389L127 220.611L129 220.917L130 220.972L131 221L133 221L139 221L160 221M221 397L221 409L209 409L209 469L221 469L221 433L252 433L252 469L264 469L264 409L252 409L252 397L221 397M270 397L270 469L282 469L282 433L318 433L318 421L330 421L330 409L318 409L318 397L270 397M342 397L342 409L348 409L348 457L342 457L342 469L366 469L366 457L360 457L360 409L366 409L366 397L342 397M155 409L155 421L185 421L185 433L173 433L173 445L161 445L161 457L155 457L155 469L203 469L203 457L173 457L173 445L185 445L185 433L197 433L197 421L203 421L203 409L155 409z"/>
<path style="fill:#02a9f3; stroke:none;" d="M221 409L221 421L252 421L252 409L221 409M282 409L282 421L318 421L318 409L282 409z"/>
</svg>
